<svg width="28" height="28" viewBox="0 0 28 28" fill="none" xmlns="http://www.w3.org/2000/svg">
<path d="M18.1792 11.2137C17.9228 11.2137 17.7148 11.0058 17.7148 10.7493C17.7148 10.4928 17.9228 10.2849 18.1792 10.2849" stroke="#BA8BA5" stroke-width="1.5" stroke-linecap="round" stroke-linejoin="round"/>
<path d="M18.1792 11.2137C18.4357 11.2137 18.6436 11.0058 18.6436 10.7493C18.6436 10.4928 18.4357 10.2849 18.1792 10.2849" stroke="#BA8BA5" stroke-width="1.5" stroke-linecap="round" stroke-linejoin="round"/>
<path d="M9.82082 11.2137C9.56436 11.2137 9.35645 11.0058 9.35645 10.7493C9.35645 10.4928 9.56436 10.2849 9.82082 10.2849" stroke="#BA8BA5" stroke-width="1.5" stroke-linecap="round" stroke-linejoin="round"/>
<path d="M9.8208 11.2137C10.0773 11.2137 10.2852 11.0058 10.2852 10.7493C10.2852 10.4928 10.0773 10.2849 9.8208 10.2849" stroke="#BA8BA5" stroke-width="1.5" stroke-linecap="round" stroke-linejoin="round"/>
<path d="M14 26.0738C20.6683 26.0738 26.0738 20.6683 26.0738 14C26.0738 7.33187 20.6683 1.92627 14 1.92627C7.33187 1.92627 1.92627 7.33187 1.92627 14C1.92627 20.6683 7.33187 26.0738 14 26.0738Z" stroke="#BA8BA5" stroke-width="1.5" stroke-linecap="round" stroke-linejoin="round"/>
<path d="M15.3599 19.7899C16.0077 19.8785 16.9932 19.4991 17.7735 18.902C18.5539 18.3049 19.1778 17.4529 19.2616 16.8044" stroke="#BA8BA5" stroke-width="1.5" stroke-linecap="round" stroke-linejoin="round"/>
</svg>
