<svg width="48" height="48" viewBox="0 0 48 48" fill="none" xmlns="http://www.w3.org/2000/svg">
<g id="Burger--Streamline-Core.svg">
<g id="burger--burger-fast-cook-cooking-nutrition-food">
<path id="Vector" d="M3.30225 25.5923H44.698" stroke="#C27DA2" stroke-width="3" stroke-linecap="round" stroke-linejoin="round"/>
<path id="Vector_2" d="M14.4472 3.30225H33.553C36.5089 3.30225 39.3436 4.47645 41.4337 6.56655C43.5239 8.65662 44.698 11.4914 44.698 14.4472C44.698 15.2918 44.3623 16.1017 43.7653 16.6989C43.1682 17.296 42.3581 17.6315 41.5137 17.6315H6.48653C5.642 17.6315 4.83207 17.296 4.2349 16.6989C3.63773 16.1017 3.30225 15.2918 3.30225 14.4472C3.30225 11.4914 4.47645 8.65662 6.56655 6.56655C8.65662 4.47645 11.4914 3.30225 14.4472 3.30225Z" stroke="#C27DA2" stroke-width="3" stroke-linecap="round" stroke-linejoin="round"/>
<path id="Vector_3" d="M43.1058 33.553H24.0001L19.2237 38.3294L9.67082 33.553H4.89439C4.47213 33.553 4.06716 33.7208 3.76858 34.0192C3.46999 34.3178 3.30225 34.7229 3.30225 35.1451C3.30225 37.6785 4.3087 40.1085 6.10021 41.8999C7.89173 43.6914 10.3215 44.698 12.8551 44.698H35.1451C37.6785 44.698 40.1084 43.6914 41.8999 41.8999C43.6914 40.1085 44.698 37.6785 44.698 35.1451C44.698 34.7229 44.5301 34.3178 44.2318 34.0192C43.9331 33.7208 43.5281 33.553 43.1058 33.553Z" stroke="#C27DA2" stroke-width="3" stroke-linecap="round" stroke-linejoin="round"/>
</g>
</g>
</svg>
