<svg width="36" height="36" viewBox="0 0 36 36" fill="none" xmlns="http://www.w3.org/2000/svg">
<g clip-path="url(#clip0_434_428)">
<path d="M18 34.875C27.3198 34.875 34.875 27.3198 34.875 18C34.875 8.6802 27.3198 1.125 18 1.125C8.6802 1.125 1.125 8.6802 1.125 18C1.125 27.3198 8.6802 34.875 18 34.875Z" stroke="#DB2A2A" stroke-width="2.5" stroke-linecap="round" stroke-linejoin="round"/>
<path d="M27.072 27.0004C26.2341 25.3096 24.9405 23.8864 23.3371 22.8915C21.7336 21.8964 19.8841 21.3691 17.997 21.3691C16.1098 21.3691 14.2604 21.8964 12.6569 22.8915C11.0534 23.8864 9.75984 25.3096 8.922 27.0004" stroke="#DB2A2A" stroke-width="2.5" stroke-linecap="round" stroke-linejoin="round"/>
<path d="M12.375 14.0625C12.0643 14.0625 11.8125 13.8107 11.8125 13.5C11.8125 13.1893 12.0643 12.9375 12.375 12.9375" stroke="#DB2A2A" stroke-width="2.5"/>
<path d="M12.375 14.0625C12.6857 14.0625 12.9375 13.8107 12.9375 13.5C12.9375 13.1893 12.6857 12.9375 12.375 12.9375" stroke="#DB2A2A" stroke-width="2.5"/>
<path d="M23.625 14.0625C23.3143 14.0625 23.0625 13.8107 23.0625 13.5C23.0625 13.1893 23.3143 12.9375 23.625 12.9375" stroke="#DB2A2A" stroke-width="2.5"/>
<path d="M23.625 14.0625C23.9357 14.0625 24.1875 13.8107 24.1875 13.5C24.1875 13.1893 23.9357 12.9375 23.625 12.9375" stroke="#DB2A2A" stroke-width="2.5"/>
</g>
<defs>
<clipPath id="clip0_434_428">
<rect width="36" height="36" fill="white"/>
</clipPath>
</defs>
</svg>
