<svg width="26" height="26" viewBox="0 0 26 26" fill="none" xmlns="http://www.w3.org/2000/svg">
<path d="M21.3586 9.28502C21.3586 14.8575 12.9999 21.3588 12.9999 21.3588C12.9999 21.3588 4.64111 14.8575 4.64111 9.28502C4.64111 4.73229 8.44713 0.92627 12.9999 0.92627C17.5526 0.92627 21.3586 4.73229 21.3586 9.28502Z" stroke="#C27DA2" stroke-width="1.5" stroke-linecap="round" stroke-linejoin="round"/>
<path d="M13.0001 12.071C14.5389 12.071 15.7864 10.8236 15.7864 9.28479C15.7864 7.74598 14.5389 6.49854 13.0001 6.49854C11.4613 6.49854 10.2139 7.74598 10.2139 9.28479C10.2139 10.8236 11.4613 12.071 13.0001 12.071Z" stroke="#C27DA2" stroke-width="1.5" stroke-linecap="round" stroke-linejoin="round"/>
<path d="M20.5736 18.5728H22.2875L25.0738 25.074H0.92627L3.71252 18.5728H5.42643" stroke="#C27DA2" stroke-width="1.5" stroke-linecap="round" stroke-linejoin="round"/>
</svg>
