<svg width="26" height="26" viewBox="0 0 26 26" fill="none" xmlns="http://www.w3.org/2000/svg">
<path d="M16.2547 24.1281C17.3962 24.8655 18.7564 25.1871 20.1067 25.0383C21.457 24.8895 22.715 24.2797 23.6691 23.3112L24.5033 22.4943C24.869 22.1198 25.0737 21.6166 25.0737 21.0928C25.0737 20.5688 24.869 20.0658 24.5033 19.6911L20.9629 16.1823C20.5919 15.8172 20.0927 15.6127 19.5726 15.6127C19.0526 15.6127 18.5533 15.8172 18.1824 16.1823C17.8084 16.5486 17.306 16.7536 16.7829 16.7536C16.2598 16.7536 15.7575 16.5486 15.3835 16.1823L9.82258 10.6129C9.63707 10.4298 9.48975 10.2116 9.38921 9.97098C9.28866 9.73034 9.23687 9.47211 9.23687 9.21126C9.23687 8.95041 9.28866 8.69216 9.38921 8.45152C9.48975 8.2109 9.63707 7.9927 9.82258 7.80961C10.1871 7.43813 10.3913 6.93811 10.3913 6.41726C10.3913 5.8964 10.1871 5.39638 9.82258 5.0249L6.30072 1.49759C5.92662 1.13134 5.42435 0.92627 4.90128 0.92627C4.37802 0.92627 3.87576 1.13134 3.50166 1.49759L2.68603 2.33301C1.7192 3.28862 1.11031 4.54852 0.961711 5.90091C0.813111 7.25329 1.13409 8.61565 1.87059 9.7589C5.70762 15.4225 10.5899 20.2996 16.2547 24.1281Z" stroke="#C27DA2" stroke-width="1.5" stroke-linecap="round" stroke-linejoin="round"/>
</svg>
