<svg width="28" height="28" viewBox="0 0 28 28" fill="none" xmlns="http://www.w3.org/2000/svg">
<path fill-rule="evenodd" clip-rule="evenodd" d="M14.3796 11.5138C15.3777 11.6904 16.2153 12.4751 16.4476 13.554L16.4863 13.7337C17.3574 17.7799 23.1141 17.8164 24.0224 13.7663L24.0694 13.5569C24.1093 13.3792 24.1654 13.2095 24.2358 13.0493V24.169C24.2358 25.1949 23.4042 26.0265 22.3783 26.0265H3.8033C2.77743 26.0265 1.9458 25.1949 1.9458 24.169V11.1665H13.292C13.6165 11.3242 13.979 11.443 14.3796 11.5138Z" fill="white"/>
<path fill-rule="evenodd" clip-rule="evenodd" d="M13.292 11.1665C11.1542 10.1279 10.6657 7.40311 11.8266 5.59399H3.8033C2.77743 5.59399 1.9458 6.42562 1.9458 7.45149V11.1665H13.292Z" fill="#F1E1EA"/>
<path d="M11.2138 5.64136H3.78377C3.29112 5.64136 2.81867 5.83706 2.47032 6.1854C2.12197 6.53376 1.92627 7.00621 1.92627 7.49886V24.2164C1.92627 24.709 2.12197 25.1815 2.47032 25.5298C2.81867 25.8781 3.29112 26.0739 3.78377 26.0739H22.3588C23.3847 26.0739 24.2163 25.2423 24.2163 24.2164V14.0001" stroke="#BA8BA5" stroke-width="1.5" stroke-linecap="round" stroke-linejoin="round"/>
<path d="M1.92627 11.2139H12.6069" stroke="#BA8BA5" stroke-width="1.5" stroke-linecap="round" stroke-linejoin="round"/>
<path d="M14.9457 8.31299C14.3039 8.19944 14.3039 7.26248 14.9457 7.14893C17.2711 6.73757 19.1206 4.93652 19.6254 2.59196L19.6641 2.41224C19.803 1.76717 20.7061 1.76316 20.8506 2.40697L20.8976 2.61641C21.4209 4.94991 23.271 6.73573 25.5899 7.14596C26.235 7.26008 26.235 8.20183 25.5899 8.31596C23.271 8.72619 21.4209 10.512 20.8976 12.8455L20.8506 13.0549C20.7061 13.6988 19.803 13.6947 19.6641 13.0497L19.6254 12.87C19.1206 10.5254 17.2711 8.72435 14.9457 8.31299Z" fill="white"/>
<path d="M14.9457 8.31299C14.3039 8.19944 14.3039 7.26248 14.9457 7.14893C17.2711 6.73757 19.1206 4.93652 19.6254 2.59196L19.6641 2.41224C19.803 1.76717 20.7061 1.76316 20.8506 2.40697L20.8976 2.61641C21.4209 4.94991 23.271 6.73573 25.5899 7.14596C26.235 7.26008 26.235 8.20183 25.5899 8.31596C23.271 8.72619 21.4209 10.512 20.8976 12.8455L20.8506 13.0549C20.7061 13.6988 19.803 13.6947 19.6641 13.0497L19.6254 12.87C19.1206 10.5254 17.2711 8.72435 14.9457 8.31299Z" stroke="#BA8BA5" stroke-width="1.5" stroke-linecap="round" stroke-linejoin="round"/>
</svg>
