<svg width="33" height="32" viewBox="0 0 33 32" fill="none" xmlns="http://www.w3.org/2000/svg">
<g clip-path="url(#clip0_498_928)">
<path d="M18.4493 2.20386C18.2678 1.84243 17.9894 1.53857 17.6452 1.32624C17.3009 1.11391 16.9044 1.00146 16.5 1.00146C16.0955 1.00146 15.6991 1.11391 15.3548 1.32624C15.0106 1.53857 14.7322 1.84243 14.5507 2.20386L1.73066 27.8452C1.56495 28.1776 1.48684 28.5467 1.50372 28.9177C1.52061 29.2887 1.63193 29.6492 1.82715 29.9652C2.02237 30.2811 2.29502 30.542 2.61926 30.723C2.94351 30.9041 3.30862 30.9994 3.68 30.9999H29.3213C29.6927 30.9994 30.0578 30.9041 30.3821 30.723C30.7063 30.542 30.979 30.2811 31.1742 29.9652C31.3694 29.6492 31.4807 29.2887 31.4976 28.9177C31.5145 28.5467 31.4364 28.1776 31.2707 27.8452L18.4493 2.20386Z" stroke="black" stroke-width="1.5" stroke-linecap="round" stroke-linejoin="round"/>
<path d="M7.5 27H25.5" stroke="black" stroke-width="1.5" stroke-linecap="round" stroke-linejoin="round"/>
<path d="M16.5 15C16.5 15.5304 16.7107 16.0391 17.0858 16.4142C17.4609 16.7893 17.9696 17 18.5 17C19.0304 17 19.5391 16.7893 19.9142 16.4142C20.2893 16.0391 20.5 15.5304 20.5 15C20.5 14.4696 20.2893 13.9609 19.9142 13.5858C19.5391 13.2107 19.0304 13 18.5 13C17.9696 13 17.4609 13.2107 17.0858 13.5858C16.7107 13.9609 16.5 14.4696 16.5 15Z" stroke="black" stroke-width="1.5" stroke-linecap="round" stroke-linejoin="round"/>
<path d="M12.5906 15.8975C12.9602 16.8229 13.5179 17.6615 14.2284 18.3603C14.9389 19.0591 15.7866 19.6028 16.7181 19.9569C17.6495 20.3111 18.6444 20.4681 19.6396 20.4179C20.6349 20.3677 21.6089 20.1115 22.5 19.6655" stroke="black" stroke-width="1.5" stroke-linecap="round" stroke-linejoin="round"/>
<path d="M17.344 20.1558L13.5 23.9998" stroke="black" stroke-width="1.5" stroke-linecap="round" stroke-linejoin="round"/>
<path d="M15.3 22.2L11.5 21L8.5 23" stroke="black" stroke-width="1.5" stroke-linecap="round" stroke-linejoin="round"/>
</g>
<defs>
<clipPath id="clip0_498_928">
<rect width="32" height="32" fill="white" transform="translate(0.5)"/>
</clipPath>
</defs>
</svg>
