<svg width="36" height="36" viewBox="0 0 36 36" fill="none" xmlns="http://www.w3.org/2000/svg">
<g clip-path="url(#clip0_429_712)">
<path d="M18 34.875C27.3198 34.875 34.875 27.3198 34.875 18C34.875 8.6802 27.3198 1.125 18 1.125C8.6802 1.125 1.125 8.6802 1.125 18C1.125 27.3198 8.6802 34.875 18 34.875Z" stroke="#7CB93F" stroke-width="2.5" stroke-linecap="round" stroke-linejoin="round"/>
<path d="M8.45099 21.375C8.27102 21.375 8.09369 21.4182 7.93388 21.501C7.77407 21.5836 7.63643 21.7037 7.53254 21.8505C7.42865 21.9975 7.36152 22.1672 7.3368 22.3455C7.31208 22.5237 7.3305 22.7054 7.39049 22.875C8.16476 25.0704 9.60102 26.9715 11.5012 28.3163C13.4015 29.661 15.672 30.3833 18 30.3833C20.3279 30.3833 22.5986 29.661 24.4988 28.3163C26.399 26.9715 27.8352 25.0704 28.6095 22.875C28.6695 22.7054 28.688 22.5237 28.6632 22.3455C28.6385 22.1672 28.5713 21.9975 28.4675 21.8505C28.3635 21.7037 28.226 21.5836 28.0661 21.501C27.9063 21.4182 27.729 21.375 27.549 21.375H8.45099Z" stroke="#7CB93F" stroke-width="2.5" stroke-linecap="round" stroke-linejoin="round"/>
<path d="M11.25 12.9375C10.9393 12.9375 10.6875 12.6857 10.6875 12.375C10.6875 12.0643 10.9393 11.8125 11.25 11.8125" stroke="#7CB93F" stroke-width="2.5"/>
<path d="M11.25 12.9375C11.5607 12.9375 11.8125 12.6857 11.8125 12.375C11.8125 12.0643 11.5607 11.8125 11.25 11.8125" stroke="#7CB93F" stroke-width="2.5"/>
<path d="M24.75 12.9375C24.4393 12.9375 24.1875 12.6857 24.1875 12.375C24.1875 12.0643 24.4393 11.8125 24.75 11.8125" stroke="#7CB93F" stroke-width="2.5"/>
<path d="M24.75 12.9375C25.0607 12.9375 25.3125 12.6857 25.3125 12.375C25.3125 12.0643 25.0607 11.8125 24.75 11.8125" stroke="#7CB93F" stroke-width="2.5"/>
</g>
<defs>
<clipPath id="clip0_429_712">
<rect width="36" height="36" fill="white"/>
</clipPath>
</defs>
</svg>
